<?xml version="1.0" standalone="no"?><!DOCTYPE svg PUBLIC "-//W3C//DTD SVG 1.1//EN" "http://www.w3.org/Graphics/SVG/1.1/DTD/svg11.dtd"><svg t="1495524522303" class="icon" style="" viewBox="0 0 1024 1024" version="1.1" xmlns="http://www.w3.org/2000/svg" p-id="1536" xmlns:xlink="http://www.w3.org/1999/xlink" width="32" height="32"><defs><style type="text/css"></style></defs><path d="M340.772 171.417c3.128-12.239 11.375-14.799 21.65-14.883s35.008 0 49.043 0c14.036 0 37.815-12.632 42.632-30.391 3.789-13.955 10.617-39.517 14.189-54.166s11.333-17.589 23.131-17.589c11.797 0.001 31.074 0 42.15 0 11.078 0 18.096 3.298 21.651 17.589 3.55 14.291 9.653 36.356 14.254 53.184 4.599 16.827 24.811 31.459 49.331 31.373s39.405-0.017 47.352 0c7.949 0.018 14.629 6.935 16.574 14.883 1.944 7.947 11.511 47.282 12.515 51.41s1.003 4.134-4.736 4.734c-5.74 0.603-353.704 0.006-357.85 0s-4.991-1.31-4.060-4.734c0.931-3.423 9.049-39.173 12.176-51.409zM441.8 54.39c-3.55 12.685-11.904 46.81-14.207 56.146-2.3 9.341-9.894 15.642-21.311 15.559s-31.71-0.025-50.734 0-39.32 19.87-42.287 32.133c-2.972 12.263-8.457 34.157-14.534 58.513-6.077 24.359 15.22 42.111 33.822 41.602s344.912 0 360.894 0c15.982 0 38.053-15.729 31.794-41.602-6.258-25.874-11.547-47.557-14.208-58.513s-17.589-32.303-50.394-32.133c-32.809 0.167-37.207 0-44.309 0-7.103 0-16.491-4.735-19.279-15.559-2.79-10.821-11.382-42.949-14.882-56.146-3.499-13.199-22.662-30.695-46.677-30.781s-23.93 0-47.692 0c-23.759 0-42.45 18.094-46.002 30.781zM184.42 180.043c-21.562 0-33.485 21.056-33.485 41.093 0 17.505 0 711.983 0 735.66 0 23.673 17.589 43.631 44.647 43.631 27.060 0 605.27 0 636.217 0s41.35-20.801 41.265-43.631c-0.083-22.835-0.003-715.365 0-739.379 0.002-24.015-20.972-37.544-37.885-37.376-16.911 0.168-33.822 0.063-52.763 0-18.942-0.062-18.434 29.766 0 29.934 18.433 0.168 43.462 0.566 52.087 0.676 8.628 0.117 7.441 9.47 7.441 9.47s0 726.018 0 738.701c0 12.686-11.5 10.149-11.5 10.149h-637.231c0 0-11.161 0.675-11.498-10.822-0.339-11.5 0.167-738.026 0.167-738.026s0.508-10.402 10.148-10.653c9.64-0.254 33.994 0 50.734 0 16.743 0 19.278-29.429 0-29.429-16.237 0.001-40.588 0.001-58.345 0.001zM704.081 391.324c0-8.685-7.042-15.728-15.728-15.728h-352.708c-8.685 0-15.728 7.042-15.728 15.728v0c0 8.688 7.042 15.729 15.728 15.729h352.709c8.684 0 15.727-7.042 15.727-15.729v0zM704.081 489.988c0-8.685-7.042-15.728-15.728-15.728h-352.708c-8.685 0-15.728 7.042-15.728 15.728v0c0 8.688 7.042 15.729 15.728 15.729h352.709c8.684-0.001 15.727-7.044 15.727-15.729v0zM704.081 588.651c0-8.684-7.042-15.727-15.728-15.727h-352.708c-8.685 0-15.728 7.042-15.728 15.727v0c0 8.688 7.042 15.729 15.728 15.729h352.709c8.684 0 15.727-7.042 15.727-15.729v0zM704.081 687.311c0-8.688-7.042-15.729-15.728-15.729h-352.708c-8.685 0-15.728 7.042-15.728 15.729v0c0 8.688 7.042 15.727 15.728 15.727h352.709c8.684 0 15.727-7.040 15.727-15.727v0zM704.081 785.975c0-8.688-7.042-15.729-15.728-15.729h-352.708c-8.685 0-15.728 7.042-15.728 15.729v0c0 8.688 7.042 15.727 15.728 15.727h352.709c8.684 0 15.727-7.040 15.727-15.727v0z" p-id="1537"></path></svg>