<?xml version="1.0" standalone="no"?><!DOCTYPE svg PUBLIC "-//W3C//DTD SVG 1.1//EN" "http://www.w3.org/Graphics/SVG/1.1/DTD/svg11.dtd"><svg t="1495526259096" class="icon" style="" viewBox="0 0 1024 1024" version="1.1" xmlns="http://www.w3.org/2000/svg" p-id="2617" xmlns:xlink="http://www.w3.org/1999/xlink" width="16" height="16"><defs><style type="text/css"></style></defs><path d="M175.49312 644.70016a359.38816 359.38816 0 0 1-7.12704-71.07072c0-144.9728 75.9296-248.66816 199.90016-305.32608-6.93248-13.2608-23.2704-48.384-26.48576-63.42656C200.73984 267.90912 102.2976 409.15456 102.2976 573.62944c0 29.88032 3.47648 58.9312 9.63584 86.9632 13.30176-6.9376 48.47104-12.70784 63.55968-15.89248zM844.18048 573.62944c0 23.4752-2.42176 46.38208-6.74304 68.61312 15.33952 1.1776 51.24096 4.21888 65.152 9.2416a405.0944 405.0944 0 0 0 7.66464-77.85472c0-164.48-98.44224-305.72032-239.47264-368.74752-3.21024 15.04256-19.54304 50.16576-26.47552 63.42144 123.95008 56.66304 199.87456 160.3584 199.87456 305.32608zM506.27584 911.53408a356.72576 356.72576 0 0 1-170.04544-42.93632c-7.32672 13.3376-15.8976 47.04256-26.42432 57.86624a401.75616 401.75616 0 0 0 196.46976 51.13344c77.62432 0 149.86752-22.272 211.4304-60.22144-9.7024-11.45856-23.3728-45.1584-29.75232-58.95168-54.54848 33.4592-113.13152 53.10976-181.67808 53.10976zM185.2928 681.23136c-69.81632 0-126.40768 56.59648-126.40768 126.40768 0 69.82144 56.59136 126.40256 126.40768 126.40256s126.40768-56.58624 126.40768-126.40256-56.59136-126.40768-126.40768-126.40768z m0 206.32064c-44.13952 0-79.91296-35.76832-79.91296-79.90784s35.77856-79.91296 79.91296-79.91296c44.1344 0 79.90784 35.77344 79.90784 79.91296S229.4272 887.552 185.2928 887.552zM508.52864 37.78048c-69.81632 0-126.40768 56.59648-126.40768 126.40768 0 69.82144 56.59136 126.40256 126.40768 126.40256s126.40768-56.58624 126.40768-126.40256c0.00512-69.8112-56.59136-126.40768-126.40768-126.40768z m0.00512 206.32064c-44.13952 0-79.91296-35.76832-79.91296-79.90784S464.39424 84.2752 508.53376 84.2752c44.1344 0 79.90784 35.77344 79.90784 79.91296s-35.77856 79.91296-79.90784 79.91296zM838.9888 676.11136c-69.81632 0-126.40768 56.59648-126.40768 126.40768 0 69.82144 56.59648 126.40256 126.40768 126.40256s126.40768-56.58624 126.40768-126.40256c0.00512-69.81632-56.59136-126.40768-126.40768-126.40768z m0 206.32064c-44.1344 0-79.90784-35.76832-79.90784-79.90784s35.77344-79.91296 79.90784-79.91296 79.90784 35.77344 79.90784 79.91296-35.77344 79.90784-79.90784 79.90784z" fill="" p-id="2618"></path></svg>