<?xml version="1.0" standalone="no"?><!DOCTYPE svg PUBLIC "-//W3C//DTD SVG 1.1//EN" "http://www.w3.org/Graphics/SVG/1.1/DTD/svg11.dtd"><svg t="1495526236207" class="icon" style="" viewBox="0 0 1024 1024" version="1.1" xmlns="http://www.w3.org/2000/svg" p-id="1998" xmlns:xlink="http://www.w3.org/1999/xlink" width="16" height="16"><defs><style type="text/css"></style></defs><path d="M926.438 967.789c-14.98-65.328-110.267-202.746-273.483-257.151 130.448-55.445 222.094-184.749 222.094-335.17 0-200.769-163.32-364.089-364.089-364.089s-364.089 163.32-364.089 364.089c0 150.42 91.646 279.725 222.094 335.17-163.216 54.405-258.503 191.823-273.483 257.151-3.224 14.043 5.513 27.983 19.557 31.104 1.977 0.417 3.849 0.624 5.825 0.624 11.859 0 22.574-8.114 25.278-20.181 15.707-68.24 147.092-239.779 364.817-239.779s349.109 171.538 364.713 239.882c2.704 12.067 13.42 20.181 25.278 20.181 1.977 0 3.849-0.208 5.825-0.624 14.043-3.224 22.782-17.164 19.661-31.208zM510.96 63.393c172.058 0 312.076 140.018 312.076 312.076 0 5.618-0.52 11.131-0.832 16.644-78.956-3.849-142.931-45.771-195.984-130.24-4.578-7.385-12.587-11.963-21.325-12.171-9.466 0.417-16.956 3.849-21.949 10.923-66.473 93.623-146.988 114.22-202.85 114.948-84.677 0.417-151.773-39.010-173.411-67.72 0-0.104-0.104-0.104-0.208-0.104 31.104-139.602 155.726-244.356 304.483-244.356zM198.884 375.469c0-1.352 0.208-2.601 0.208-3.953 42.754 31.311 109.539 56.902 181.628 56.174 61.583-0.832 147.508-21.013 221.991-107.77 57.734 77.811 129.095 119.109 212.42 124.102-31.208 139.186-155.622 243.523-304.171 243.523-172.058 0-312.076-140.018-312.076-312.076z" p-id="1999"></path></svg>