<?xml version="1.0" standalone="no"?><!DOCTYPE svg PUBLIC "-//W3C//DTD SVG 1.1//EN" "http://www.w3.org/Graphics/SVG/1.1/DTD/svg11.dtd"><svg t="1495526247816" class="icon" style="" viewBox="0 0 1024 1024" version="1.1" xmlns="http://www.w3.org/2000/svg" p-id="2244" xmlns:xlink="http://www.w3.org/1999/xlink" width="16" height="16"><defs><style type="text/css"></style></defs><path d="M501.091 599.273h21.818c18.066 0 32.727 14.662 32.727 32.727v152.727c0 18.066-14.662 32.727-32.749 32.727h-21.818c-18.087 0-32.727-14.662-32.727-32.727v-152.727c0.022-18.066 14.662-32.727 32.749-32.727z" p-id="2245"></path><path d="M861.091 490.182v393.513c0 23.629-19.549 42.851-43.636 42.851h-610.909c-24.066 0-43.636-19.222-43.636-42.851v-393.513h698.182M926.546 424.727h-829.091v458.967c0 59.826 48.829 108.306 109.091 108.306h610.909c60.262 0 109.091-48.48 109.091-108.306v-458.967z" p-id="2246"></path><path d="M839.273 424.727h-65.454v-65.454c0-147.186-122.902-261.818-261.818-261.818-142.342 0-261.818 119.454-261.818 261.818v65.454h-65.454v-65.454c0-178.451 148.822-327.273 327.273-327.273 176.204 0 327.273 142.756 327.273 327.273v65.454z" p-id="2247"></path></svg>