<?xml version="1.0" standalone="no"?><!DOCTYPE svg PUBLIC "-//W3C//DTD SVG 1.1//EN" "http://www.w3.org/Graphics/SVG/1.1/DTD/svg11.dtd"><svg t="1495526262529" class="icon" style="" viewBox="0 0 1024 1024" version="1.1" xmlns="http://www.w3.org/2000/svg" p-id="2740" xmlns:xlink="http://www.w3.org/1999/xlink" width="16" height="16"><defs><style type="text/css"></style></defs><path d="M1023.540966 914.855724C1023.593931 888.037517 1023.841103 913.902345 1023.540966 914.855724ZM930.462897 1024C879.086345 1024 842.522483 1024 829.669517 1024L178.334897 1024C165.499586 1024 144.436966 1024 93.042759 1024 41.666207 1024 0 982.157241 0 930.515862 0 923.948138 0.017655 918.845793 0.017655 914.855724 0.158897 914.608552 0.229517 912.542897 0.247172 910.124138 1.959724 728.311172 98.445241 601.458759 242.334897 534.369103 201.18069 478.667034 176.551724 410.023724 176.551724 335.448276 176.551724 150.192552 326.744276 0 512 0 697.255724 0 847.448276 150.192552 847.448276 335.448276 847.448276 410.07669 822.784 478.772966 781.559172 534.49269 926.631724 602.200276 1023.52331 730.641655 1023.52331 914.961655 1023.52331 914.961655 1023.52331 914.873379 1023.540966 914.855724 1023.52331 918.828138 1023.52331 923.948138 1023.52331 930.515862 1023.52331 982.157241 981.857103 1024 930.462897 1024ZM794.482759 335.448276C794.482759 179.429517 668.018759 52.965517 512 52.965517 355.981241 52.965517 229.517241 179.429517 229.517241 335.448276 229.517241 491.467034 355.981241 617.931034 512 617.931034 668.018759 617.931034 794.482759 491.467034 794.482759 335.448276ZM970.857931 922.006069C970.857931 748.791172 880.798897 633.414621 746.778483 574.852414 686.256552 634.191448 603.453793 670.896552 512 670.896552 420.652138 670.896552 337.937655 634.262069 277.433379 575.046621 143.642483 633.661793 53.777655 748.985379 53.777655 922.006069 53.124414 921.705931 53.777655 920.293517 53.777655 938.354759 53.777655 956.416 67.937103 971.069793 85.398069 971.069793 102.859034 971.069793 159.26731 971.069793 172.367448 971.069793L836.466759 971.069793C846.388966 971.069793 909.312 971.069793 939.237517 971.069793 956.698483 971.069793 970.857931 956.416 970.857931 938.354759 970.857931 920.293517 970.804966 921.688276 970.857931 922.006069ZM0 914.961655C0 914.767448 0.03531 914.608552 0.03531 914.414345 0.03531 914.590897 0.017655 914.696828 0.017655 914.855724 0.017655 914.873379 0.017655 914.961655 0 914.961655ZM0.247172 910.124138C0.229517 911.589517 0.03531 912.948966 0.03531 914.414345 0.105931 895.593931 0.317793 903.768276 0.247172 910.124138Z" p-id="2741"></path></svg>