<?xml version="1.0" standalone="no"?><!DOCTYPE svg PUBLIC "-//W3C//DTD SVG 1.1//EN" "http://www.w3.org/Graphics/SVG/1.1/DTD/svg11.dtd"><svg t="1495526252148" class="icon" style="" viewBox="0 0 1024 1024" version="1.1" xmlns="http://www.w3.org/2000/svg" p-id="2369" xmlns:xlink="http://www.w3.org/1999/xlink" width="16" height="16"><defs><style type="text/css"></style></defs><path d="M517.060 795.891c-26.407 0-47.89 21.482-47.89 47.891 0 26.407 21.484 47.891 47.89 47.891 26.408 0 47.893-21.483 47.893-47.891-0.001-26.409-21.485-47.891-47.893-47.891z" p-id="2370"></path><path d="M753.999 42.069h-473.876c-39.865 0-72.298 32.433-72.298 72.298v795.266c0 39.866 32.433 72.298 72.298 72.298h473.875c39.865 0 72.297-32.432 72.297-72.298v-795.266c0.001-39.865-32.431-72.298-72.296-72.298zM280.123 90.268h473.875c13.289 0 24.1 10.812 24.1 24.1v595.808h-522.074v-595.809c0-13.288 10.811-24.099 24.099-24.099zM753.999 933.731h-473.876c-13.288 0-24.1-10.81-24.1-24.099v-147.132h522.075v147.133c0.001 13.289-10.81 24.098-24.099 24.098z" p-id="2371"></path></svg>