<?xml version="1.0" standalone="no"?><!DOCTYPE svg PUBLIC "-//W3C//DTD SVG 1.1//EN" "http://www.w3.org/Graphics/SVG/1.1/DTD/svg11.dtd"><svg t="1495526269957" class="icon" style="" viewBox="0 0 1025 1024" version="1.1" xmlns="http://www.w3.org/2000/svg" p-id="2986" xmlns:xlink="http://www.w3.org/1999/xlink" width="16.015625" height="16"><defs><style type="text/css"></style></defs><path d="M515.737 447.204c-37.23 0-67.436 30.205-67.436 67.436 0 37.252 30.207 67.436 67.436 67.436 37.231 0 67.436-30.184 67.436-67.436 0-37.231-30.205-67.436-67.436-67.436zM515.737 289.876c-124.158 0-224.785 100.625-224.785 224.763 0 124.158 100.627 224.785 224.785 224.785 124.157 0 224.785-100.627 224.785-224.785 0-124.138-100.628-224.763-224.785-224.763zM515.737 694.468c-99.311 0-179.829-80.498-179.829-179.829 0-99.311 80.519-179.829 179.829-179.829s179.829 80.519 179.829 179.829c0 99.33-80.519 179.829-179.829 179.829zM515.737 199.938c-273.125 0-494.528 224.785-494.528 314.7s221.405 314.7 494.528 314.7c273.124 0 494.528-224.785 494.528-314.7s-221.406-314.7-494.528-314.7zM515.737 784.381c-248.274 0-449.572-192.671-449.572-269.742s201.297-269.742 449.572-269.742c248.295 0 449.572 192.671 449.572 269.742s-201.276 269.742-449.572 269.742z" p-id="2987"></path></svg>