<?xml version="1.0" standalone="no"?><!DOCTYPE svg PUBLIC "-//W3C//DTD SVG 1.1//EN" "http://www.w3.org/Graphics/SVG/1.1/DTD/svg11.dtd"><svg t="1495526277440" class="icon" style="" viewBox="0 0 1024 1024" version="1.1" xmlns="http://www.w3.org/2000/svg" p-id="3233" xmlns:xlink="http://www.w3.org/1999/xlink" width="16" height="16"><defs><style type="text/css"></style></defs><path d="M824.636009 998.4 782.405926 801.421775C782.624622 793.441193 784.920924 773.981696 794.106132 764.645509 797.845824 760.906662 802.416556 759.157494 808.540027 759.157494L808.583767 759.157494C895.886971 759.157494 965.650803 689.431268 965.650803 603.700152 965.650803 553.78326 941.200658 506.511985 900.239009 477.279007L878.784991 461.930056 872.399084 487.533507C843.487552 603.175404 759.508518 698.50508 647.689562 742.518528L632.184056 748.618755 709.317924 998.4 640.341396 998.4 572.108431 752.773028C572.108431 752.773028 566.837873 729.837059 577.116554 713.919626 582.452723 705.720399 591.244278 700.560353 604.125437 698.111516L606.159304 697.630495C738.885542 656.437581 828.069527 535.766825 828.069527 397.363876 828.069527 223.12484 686.289298 81.376607 512.010934 81.376607 337.73257 81.376607 195.930473 223.102976 195.930473 397.342011 195.930473 537.734641 286.776543 658.90828 421.995909 698.854912 454.647132 709.262464 451.169874 755.462374 451.104266 755.899668L383.680474 998.4 326.36041 998.4 402.269583 752.641841 386.129864 746.825856C269.849518 704.889544 182.415097 607.766968 152.257001 487.008758L146.592791 464.33516 123.454817 477.125955 122.317601 478.372237C82.143256 507.845724 58.349197 554.461064 58.349197 603.700152 58.349197 689.453133 128.134899 759.179359 213.885365 759.179359L214.038452 759.179359C221.627182 759.179359 226.176047 760.928527 229.871999 764.667374 239.057206 773.981696 241.375377 793.353736 241.594072 801.421775L199.363991 998.4 134.345848 998.4 191.403478 814.671726 171.895848 810.736097C73.767222 790.970493 2.56 703.883773 2.56 603.700152 2.56 519.805663 52.400682 443.826163 129.556419 410.132805L140.228754 405.475645 140.338102 393.843676C142.240752 190.808954 308.974126 25.6 512.010934 25.6 715.047744 25.6 881.781117 190.808954 883.683768 393.843676L883.793116 405.475645 894.443581 410.132805C971.577449 443.804298 1021.44 519.761935 1021.44 603.656422 1021.44 703.861908 950.232778 790.948628 852.126021 810.736097L832.618391 814.671726 889.676022 998.4 824.636009 998.4 824.636009 998.4ZM330.209449 439.234596 329.597102 436.479654 328.153713 434.052685C325.070106 428.870771 323.626716 424.497851 323.626716 420.299848 323.626716 404.929029 336.136095 392.400612 351.51038 392.400612 366.884667 392.400612 379.394043 404.929029 379.394043 420.299848L379.394043 438.250688 385.845558 438.250688C403.341192 492.168804 454.231611 529.95084 512.010934 529.95084 569.812129 529.95084 620.680678 492.168804 638.19818 438.250688L644.649695 438.250688 644.649695 420.299848C644.649695 404.929029 657.159071 392.400612 672.533358 392.400612 687.929516 392.400612 700.417021 404.929029 700.417021 420.299848 700.417021 424.475986 698.995502 428.848909 695.890028 434.052685L694.468508 436.479654 693.834291 439.234596C674.107965 525.468598 599.314138 585.705582 512.010934 585.705582 424.685862 585.705582 349.935775 525.468598 330.209449 439.234596Z" p-id="3234"></path></svg>