<?xml version="1.0" standalone="no"?><!DOCTYPE svg PUBLIC "-//W3C//DTD SVG 1.1//EN" "http://www.w3.org/Graphics/SVG/1.1/DTD/svg11.dtd"><svg t="1495526273813" class="icon" style="" viewBox="0 0 1024 1024" version="1.1" xmlns="http://www.w3.org/2000/svg" p-id="3109" xmlns:xlink="http://www.w3.org/1999/xlink" width="16" height="16"><defs><style type="text/css"></style></defs><path d="M614.34 103.723v51.541h-408.562c-38.542 0-51.427 29.191-51.427 51.769 0 24.744-0.57 555.886-0.57 610.619 0 34.893 37.515 50.4 52.567 50.4h613.013c21.551 0 49.83-17.675 49.83-70.811v-385.528h51.427v407.535c0 27.367-4.105 101.713-102.853 101.713h-612.557c-53.137 0-101.827-33.068-101.827-102.511v-613.356c0-59.978 38.085-101.371 101.827-101.371 86.775 0 409.132 0 409.132 0v0zM614.34 103.723z" p-id="3110"></path><path d="M893.252 233.601c-19.043-19.043-75.6-76.057-88.144-89.512-22.806-24.288-52.909-25.884-76.854-3.307-24.060 22.691-409.702 395.107-409.702 395.107l-115.396 287.692 265.685-118.247c0 0 393.51-378.914 420.307-405.711 22.578-22.578 18.016-51.997 4.105-66.023v0zM268.608 755.621l68.53-165.683 85.748 92.932-154.28 72.75zM460.973 647.75l-92.59-98.748 288.263-278.456 96.239 100.23-291.911 276.973zM785.724 335.77l-93.502-97.038 71.381-68.645 95.099 93.845-72.978 71.838zM785.724 335.77z" p-id="3111"></path></svg>