<?xml version="1.0" standalone="no"?><!DOCTYPE svg PUBLIC "-//W3C//DTD SVG 1.1//EN" "http://www.w3.org/Graphics/SVG/1.1/DTD/svg11.dtd"><svg t="1495526255803" class="icon" style="" viewBox="0 0 1024 1024" version="1.1" xmlns="http://www.w3.org/2000/svg" p-id="2493" xmlns:xlink="http://www.w3.org/1999/xlink" width="16" height="16"><defs><style type="text/css"></style></defs><path d="M998.4 395.008c0-181.248-187.008-328.704-416.768-328.704-121.216 0-235.904 41.472-315.264 114.048 37.504-8.192 76.416-13.056 115.456-14.464 59.264-30.592 128.256-46.72 199.808-46.72 198.144 0 359.296 123.776 359.296 275.968 0 31.872-7.04 63.232-20.992 93.056a323.528 323.528 0 0 1 11.008 86.528c44.16-53.504 67.456-115.456 67.456-179.712zM442.368 497.28c-30.72 0-55.808 23.04-55.808 51.328s25.088 51.328 55.808 51.328 55.808-23.04 55.808-51.328-25.088-51.328-55.808-51.328zM243.328 497.28c-30.72 0-55.808 23.04-55.808 51.328s25.088 51.328 55.808 51.328 55.808-23.04 55.808-51.328c0.128-28.288-24.96-51.328-55.808-51.328zM641.28 497.28c-30.72 0-55.808 23.04-55.808 51.328s25.088 51.328 55.808 51.328 55.808-23.04 55.808-51.328-24.96-51.328-55.808-51.328z" fill="" p-id="2494"></path><path d="M442.368 218.112c-229.76 0-416.768 147.456-416.768 328.576 0 179.968 173.696 296.192 332.544 321.664l60.8 78.336c5.632 7.424 14.464 11.008 23.296 11.008 8.832 0 17.792-3.712 23.424-11.008l60.8-78.464c158.848-25.472 332.544-141.696 332.544-321.664 0.128-180.992-186.88-328.448-416.64-328.448zM714.88 722.176c-52.224 45.184-124.288 77.952-197.376 89.6-14.336 2.304-27.392 9.984-36.224 21.504l-38.784 49.92-38.912-49.92c-8.96-11.52-21.888-19.2-36.224-21.504C294.144 800 222.208 767.36 169.984 722.048c-39.68-34.304-86.912-92.544-86.912-175.36 0-69.76 35.584-136.192 100.352-187.264 68.736-54.144 160.768-84.096 258.944-84.096 98.304 0 190.336 29.824 259.072 84.096 64.768 51.072 100.352 117.504 100.352 187.264-0.128 82.944-47.232 141.184-86.912 175.488z" fill="" p-id="2495"></path></svg>