<?xml version="1.0" standalone="no"?><!DOCTYPE svg PUBLIC "-//W3C//DTD SVG 1.1//EN" "http://www.w3.org/Graphics/SVG/1.1/DTD/svg11.dtd"><svg t="1495526283081" class="icon" style="" viewBox="0 0 1024 1024" version="1.1" xmlns="http://www.w3.org/2000/svg" p-id="3356" xmlns:xlink="http://www.w3.org/1999/xlink" width="16" height="16"><defs><style type="text/css"></style></defs><path d="M576.968 463.869c0 36.586-29.651 66.235-66.235 66.235s-66.235-29.651-66.235-66.235 29.651-66.235 66.235-66.235 66.235 29.651 66.235 66.235z" p-id="3357"></path><path d="M321.392 463.869c0 36.586-29.651 66.235-66.235 66.235-36.638 0-66.287-29.651-66.287-66.235s29.651-66.235 66.287-66.235c36.586 0 66.235 29.651 66.235 66.235z" p-id="3358"></path><path d="M832.596 463.869c0 36.586-29.651 66.235-66.235 66.235s-66.235-29.651-66.235-66.235 29.652-66.235 66.235-66.235c36.586 0 66.235 29.651 66.235 66.235z" p-id="3359"></path><path d="M510.732 987.594c-16.499 0-32.764-5.574-45.799-15.697l-180.657-140.589h-182.265c-41.131 0-74.592-33.457-74.592-74.58v-583.041c0-41.123 33.462-74.58 74.592-74.58h817.465c41.116 0 74.566 33.456 74.566 74.58v583.041c0 41.123-33.452 74.58-74.566 74.58h-182.265l-180.663 140.573c-13.051 10.138-29.315 15.713-45.819 15.713zM102.013 152.097c-11.914 0-21.605 9.686-21.605 21.591v583.041c0 11.905 9.692 21.591 21.605 21.591h191.359c5.894 0 11.619 1.965 16.271 5.585l187.813 146.159c3.82 2.966 8.416 4.544 13.276 4.544 4.859 0 9.455-1.575 13.293-4.557l187.825-146.144c4.654-3.619 10.377-5.585 16.27-5.585h191.361c11.898 0 21.578-9.686 21.578-21.591v-583.042c0-11.905-9.681-21.591-21.578-21.591h-817.465z" p-id="3360"></path></svg>